<mxfile host="65bd71144e">
    <diagram id="Cz331t04V8R8M2UBg7vM" name="Página-1">
        <mxGraphModel dx="598" dy="569" grid="1" gridSize="10" guides="1" tooltips="1" connect="1" arrows="1" fold="1" page="1" pageScale="1" pageWidth="827" pageHeight="1169" math="0" shadow="0">
            <root>
                <mxCell id="0"/>
                <mxCell id="1" parent="0"/>
                <mxCell id="16" value="Cuadro" style="swimlane;fontStyle=0;childLayout=stackLayout;horizontal=1;startSize=26;horizontalStack=0;resizeParent=1;resizeParentMax=0;resizeLast=0;collapsible=1;marginBottom=0;" vertex="1" parent="1">
                    <mxGeometry x="50" y="150" width="350" height="150" as="geometry"/>
                </mxCell>
                <mxCell id="17" value="Título: 0..* Texto&#10;Cronología: 1 Tiempo&#10;Técnica: 1 enum Técnica&#10;Sub-técnica: 1 enum Sub-Técnica&#10;Material del soporte: 1 enum Material&#10;Autor: 1 Texto&#10;Estado de conservación: 1 enum Estado de Conservación" style="text;align=left;verticalAlign=top;spacingLeft=4;spacingRight=4;overflow=hidden;rotatable=0;points=[[0,0.5],[1,0.5]];portConstraint=eastwest;fontSize=13;fillColor=#f5f5f5;fontColor=#333333;strokeColor=#666666;" vertex="1" parent="16">
                    <mxGeometry y="26" width="350" height="124" as="geometry"/>
                </mxCell>
                <mxCell id="22" value="&lt;meta charset=&quot;utf-8&quot;&gt;Técnica:&#10;Acuarela&#10;Óleo&#10;Pastel&#10;Fresco" style="text;whiteSpace=wrap;html=1;fontSize=13;" vertex="1" parent="1">
                    <mxGeometry x="50" y="320" width="80" height="100" as="geometry"/>
                </mxCell>
                <mxCell id="23" value="&lt;meta charset=&quot;utf-8&quot;&gt;Material:&#10;Madera&#10;Álamo&#10;Nogal&#10;Lienzo&#10;Obra" style="text;whiteSpace=wrap;html=1;fontSize=13;" vertex="1" parent="1">
                    <mxGeometry x="120" y="320" width="80" height="110" as="geometry"/>
                </mxCell>
                <mxCell id="24" value="&lt;meta charset=&quot;utf-8&quot;&gt;Sub-Técnica:&#10;Sfumato&#10;Pincelada simple&#10;Collage&#10;Veladura" style="text;whiteSpace=wrap;html=1;fontSize=13;" vertex="1" parent="1">
                    <mxGeometry x="200" y="320" width="110" height="100" as="geometry"/>
                </mxCell>
                <mxCell id="25" value="&lt;meta charset=&quot;utf-8&quot;&gt;Estado de Conservación:&#10;Excelente&#10;Bueno&#10;Regular&#10;Malo&#10;Destruido" style="text;whiteSpace=wrap;html=1;fontSize=13;" vertex="1" parent="1">
                    <mxGeometry x="320" y="320" width="170" height="110" as="geometry"/>
                </mxCell>
            </root>
        </mxGraphModel>
    </diagram>
</mxfile>